# xmcd
#
# Track frame offsets:
#	150
#	13150
#	30047
#	42997
#	54055
#	68865
#	79917
#	92475
#	104125
#	116057
#	132430
#	147275
#
# Disc length: 2150 seconds
#
# Revision: 1912668135
# Processed by: cddbd v1.5.2PL0 Copyright (c) Steve Scherf et al.
# Submitted via: EZCDAudioConverter 9.1.1.1
#
DISCID=9d08640c
DTITLE=Lynn Anderson
DYEAR=1900
DGENRE=Country
TTITLE0=Rose Garden
TTITLE1=Blue Bayou
TTITLE2=Top Of The World
TTITLE3=Heaven's Just A Sin Away
TTITLE4=Gone At Last
TTITLE5=Someday Soon
TTITLE6=Stand By Your Man
TTITLE7=Listen To A Country Song
TTITLE8=Rodeo Cowboy
TTITLE9=The Devil Went Down To Georgia
TTITLE10=Faithless Love
TTITLE11=Two Doors Down
EXTD=
EXTT0=
EXTT1=
EXTT2=
EXTT3=
EXTT4=
EXTT5=
EXTT6=
EXTT7=
EXTT8=
EXTT9=
EXTT10=
EXTT11=
PLAYORDER=
